<svg width="200px" height="128px" viewBox="0 0 200 128" version="1.1" xmlns="http://www.w3.org/2000/svg" xmlns:xlink="http://www.w3.org/1999/xlink">
    <defs></defs>
    <g id="HP-path" stroke="none" stroke-width="1" fill="none" fill-rule="evenodd" stroke-linecap="round">
        <g id="Desktop---path" transform="translate(-612.000000, -3744.000000)" stroke="#000000">
            <g id="Group-39" transform="translate(612.000000, 3741.000000)">
                <g id="Group-10-Copy" transform="translate(26.000000, 19.000000) scale(-1, 1) translate(-26.000000, -19.000000) translate(8.000000, 10.000000)" stroke-linejoin="round" stroke-width="1.2">
                    <path d="M7.50434654,6 C7.50145769,5.92498435 7.5,5.84960171 7.5,5.77387861 C7.5,2.5850535 10.0850535,-8.89479348e-15 13.2738786,-9.48057114e-15 L22.7261214,-1.09475325e-14 C25.9149465,-1.15333102e-14 28.5,2.5850535 28.5,5.77387861 C28.5,8.96270371 25.9149465,11.5477572 22.7261214,11.5477572 L22.4832124,11.5477572 C22.4943377,11.6970495 22.5,11.8478635 22.5,12 C22.5,15.3137085 19.8137085,18 16.5,18 L6.5,18 C3.1862915,18 0.5,15.3137085 0.5,12 C0.5,8.6862915 3.1862915,6 6.5,6 L7.50434654,6 Z" id="Combined-Shape"></path>
                    <path d="M35.6077987,5.8544248 L35.6077987,11.1455752 C35.6077987,13.9069989 33.3692225,16.1455752 30.6077987,16.1455752 L30.589329,16.1455752 C27.8381058,16.1455752 25.6077987,13.9152681 25.6077987,11.1640449" id="Rectangle-4-Copy-31" transform="translate(30.607799, 11.000000) scale(-1, 1) rotate(90.000000) translate(-30.607799, -11.000000) "></path>
                </g>
                <g id="Group" transform="translate(165.000000, 55.000000)" stroke-linejoin="round" stroke-width="1.2">
                    <path d="M0,6.39863711 C5.07720686,5.12317023 9.33772391,5.38366229 12.7815511,7.18011329 C13.8959462,2.91315337 17.1300344,0.519782275 22.4838158,0" id="Path-3-Copy-7"></path>
                    <path d="M18,14.6239969 C21.6130571,13.7163453 24.6449389,13.9017175 27.0956455,15.1801133 C27.8886746,12.1436466 30.1901261,10.4404687 34,10.0705797" id="Path-3-Copy-12"></path>
                </g>
                <polygon id="Star-Copy-2" stroke-linejoin="round" transform="translate(165.951034, 8.178058) rotate(30.000000) translate(-165.951034, -8.178058) " points="165.951034 11.5826775 162.590473 13.3494287 163.232283 9.60738955 160.513533 6.95726272 164.270754 6.41130657 165.951034 3.0066869 167.631314 6.41130657 171.388535 6.95726272 168.669784 9.60738955 169.311594 13.3494287"></polygon>
                <polygon id="Star-Copy-6" stroke-linejoin="round" transform="translate(4.077910, 67.023455) rotate(30.000000) translate(-4.077910, -67.023455) " points="4.07791 68.9267184 2.199277 69.9143742 2.55806398 67.8224856 1.03821795 66.3410019 3.1385935 66.0357994 4.07791 64.1325363 5.01722651 66.0357994 7.11760206 66.3410019 5.59775603 67.8224856 5.95654301 69.9143742"></polygon>
                <g id="Group-33" transform="translate(61.000000, 19.000000)">
                    <g id="Group-8-Copy" transform="translate(73.383033, 25.165469) rotate(62.000000) translate(-73.383033, -25.165469) translate(52.086158, 14.149844)">
                        <path d="M39.3071554,11.04125 L41.7584887,4.91291664" id="Path-3-Copy-7"></path>
                        <path d="M28.2761554,7.36424997 L28.2761554,0.0102499842" id="Path-3-Copy-15"></path>
                        <path d="M16.8378195,13.434935 L13.1608195,8.53226832" id="Path-3-Copy-16"></path>
                        <path d="M10.5355751,4.60608135 L9.01103976,2.57195805" id="Path-3-Copy-22"></path>
                        <path d="M8.66159703,21.3899019 L0.736353145,17.1372112" id="Path-3-Copy-17"></path>
                    </g>
                    <g id="Group-8-Copy-2" transform="translate(13.472555, 66.796918) scale(-1, -1) rotate(62.000000) translate(-13.472555, -66.796918) translate(-2.683695, 60.187543)">
                        <path d="M29.0259054,11.04125 L31.4772387,4.91291664" id="Path-3-Copy-7"></path>
                        <path d="M17.9949054,7.36424997 L17.9949054,0.0102499842" id="Path-3-Copy-15"></path>
                        <path d="M8.54293517,12.8276421 L4.86593518,7.9249754" id="Path-3-Copy-16"></path>
                        <path d="M2.2406907,3.99878843 L0.716155393,1.96466513" id="Path-3-Copy-22"></path>
                    </g>
                    <g id="Group-3" transform="translate(18.588991, 29.346754)" stroke-width="2">
                        <path d="M20.8224637,33.78125 L49.875,33.78125 C51.5318542,33.78125 52.875,32.4381042 52.875,30.78125 L52.875,3 C52.875,1.34314575 51.5318542,-3.04359188e-16 49.875,0 L4.46875,0 C2.81189575,3.04359188e-16 1.46875,1.34314575 1.46875,3 L1.46875,30.78125 C1.46875,32.4381042 2.81189575,33.78125 4.46875,33.78125 L11.6689135,33.78125" id="Rectangle-4-Copy-22" stroke-linejoin="round" transform="translate(27.171875, 16.890625) scale(-1, 1) translate(-27.171875, -16.890625) "></path>
                        <path d="M50.9609505,1.61278179 L28.945323,19.0370029 C27.8968448,19.8668187 26.4257579,19.9025701 25.3382077,19.1246658 L3.38856118,3.42449289" id="Path-3-Copy-16"></path>
                        <path d="" id="Path-3-Copy-27"></path>
                        <path d="" id="Path-3-Copy-28" transform="translate(9.111914, 18.910370) scale(-1, 1) translate(-9.111914, -18.910370) "></path>
                    </g>
                    <polygon id="Star" stroke-linejoin="round" transform="translate(18.901911, 13.503424) rotate(-10.000000) translate(-18.901911, -13.503424) " points="18.9019107 16.8081111 15.0170176 18.8505203 15.7589662 14.5246282 12.6160216 11.4610144 16.9594642 10.8298753 18.9019107 6.89404863 20.8443573 10.8298753 25.1877999 11.4610144 22.0448553 14.5246282 22.7868039 18.8505203"></polygon>
                    <polyline id="Star-Copy" stroke-linejoin="round" transform="translate(73.483844, 78.183397) rotate(20.000000) translate(-73.483844, -78.183397) " points="73.4838443 81.2200772 70.4864619 82.7958945 71.058911 79.45826 68.6339776 77.0945342 71.9851531 76.6075799 73.4838443 73.5708998 74.9825356 76.6075799 78.3337111 77.0945342 75.9087777 79.45826 76.4812268 82.7958945"></polyline>
                </g>
                <polyline id="Star-Copy-4" stroke-linejoin="round" transform="translate(18.940153, 125.034084) rotate(120.000000) translate(-18.940153, -125.034084) " points="18.9401533 128.317067 15.6996547 130.020698 16.3185349 126.41235 13.6969165 123.856904 17.319904 123.330453 18.9401533 120.047469 20.5604026 123.330453 24.1833901 123.856904 21.5617717 126.41235 22.1806518 130.020698"></polyline>
            </g>
        </g>
    </g>
</svg>